<svg xmlns="http://www.w3.org/2000/svg" viewBox="0 0 456.551 48.475"><defs><style>.cls-1{fill:#131210;}</style></defs><title>top_logo</title><g id="Layer_2" data-name="Layer 2"><g id="레이어_1" data-name="레이어 1"><path class="cls-1" d="M0,47.939V.544H14.828C26,.544,36.9,7.718,36.9,24.238s-10.9,23.7-22.07,23.7Zm8.8-8.13h3.254a18,18,0,0,0,10.7-3.046c3.247-2.164,5.215-6.5,5.215-12.525S26,13.875,22.75,11.717a18.008,18.008,0,0,0-10.7-3.05H8.8Z"/><rect class="cls-1" x="46.447" y="0.544" width="8.806" height="47.395"/><path class="cls-1" d="M66.625,47.939V.544H81.454c11.169,0,22.077,7.174,22.077,23.694s-10.908,23.7-22.077,23.7Zm8.807-8.13h3.247a17.984,17.984,0,0,0,10.7-3.046c3.248-2.164,5.215-6.5,5.215-12.525s-1.967-10.363-5.215-12.521a17.994,17.994,0,0,0-10.7-3.05H75.432Z"/><rect class="cls-1" x="113.082" y="0.544" width="8.801" height="47.395"/><polygon class="cls-1" points="133.258 0.544 162.57 0.544 162.57 8.667 142.054 8.667 142.054 18.618 158.51 18.618 158.51 26.746 142.054 26.746 142.054 39.809 163.254 39.809 163.254 47.939 133.258 47.939 133.258 0.544"/><path class="cls-1" d="M195.817,26.746l13.135,21.193h-9.816L186.409,27.488H181.8V47.939H173V.544h17.262c9.211,0,14.426,5.35,14.426,13.472,0,6.3-3.185,11.037-8.874,12.73m-5.48-7.381c3.721,0,5.548-1.767,5.548-5.349s-1.827-5.349-5.548-5.349H181.8v10.7Z"/><path class="cls-1" d="M239.678,47.939V.544h14.829c11.17,0,22.068,7.174,22.068,23.694s-10.9,23.7-22.068,23.7Zm8.8-8.13h3.246a18.007,18.007,0,0,0,10.7-3.046c3.249-2.164,5.215-6.5,5.215-12.525s-1.966-10.363-5.215-12.521a18.016,18.016,0,0,0-10.7-3.05H248.48Z"/><path class="cls-1" d="M320.655.544V29.923c0,12.259-6.836,18.552-17.67,18.552s-17.668-6.293-17.668-18.552V.544h8.794V30.06c0,6.839,2.984,10.294,8.874,10.294s8.87-3.455,8.87-10.294V.544Z"/><path class="cls-1" d="M330.747.544h17.334c8.326,0,13.538,4.4,13.538,12.792,0,3.863-1.692,7.178-4.676,8.738q7.116,2.944,7.115,11.578c0,9.143-5.888,14.284-15.637,14.284H330.747Zm8.8,8.123V18.956h8.061c3.725,0,5.552-1.417,5.552-5.149,0-3.717-1.9-5.14-5.753-5.14Zm0,18.42V39.808h8.061c5.078,0,7.653-2.093,7.653-6.36s-2.575-6.361-7.653-6.361Z"/><path class="cls-1" d="M394.6,0c8.194,0,15.03,3.18,19.158,10.7a27.266,27.266,0,0,1,3.184,13.543c0,10.567-4.673,18.281-11.236,21.737a23.952,23.952,0,0,1-11.106,2.5c-8.195,0-14.965-3.178-19.231-10.695a27.247,27.247,0,0,1-3.112-13.542c0-10.559,4.672-18.344,11.235-21.665A23.981,23.981,0,0,1,394.6,0m0,8.125a12.7,12.7,0,0,0-9.618,4.061c-2.508,2.708-3.791,6.7-3.791,12.052s1.283,9.345,3.791,12.057a12.705,12.705,0,0,0,9.618,4.059,12.447,12.447,0,0,0,9.544-4.059c2.571-2.712,3.862-6.709,3.862-12.057s-1.291-9.344-3.862-12.052A12.439,12.439,0,0,0,394.6,8.125"/><polygon class="cls-1" points="421.477 8.667 421.477 0.544 456.551 0.544 456.551 8.667 443.414 8.667 443.414 47.939 434.617 47.939 434.617 8.667 421.477 8.667"/></g></g></svg>